#!OML:ASF F:\VICON\USERDATA\INSTALL\rory3\rory3.ASF
:FULLY-SPECIFIED
:DEGREES
579
root -6.29684 17.816 -4.77949 9.03838 37.963 4.6976
lowerback 5.62182 0.488762 1.47553
upperback 2.72301 0.829193 5.03081
thorax -0.400123 0.424036 4.31839
lowerneck -13.1885 -1.22206 -7.80694
upperneck 40.405 0.610384 2.09665
head 16.8854 -0.353098 2.5487
rclavicle -1.29608e-013 5.56597e-014
rhumerus -25.1303 4.25442 -76.7895
rradius 40.6527
rwrist 20.0828
rhand -29.066 -2.02606
rfingers 7.12502
rthumb -2.41546 -31.9921
lclavicle -1.29608e-013 5.56597e-014
lhumerus -2.40889 31.4029 38.0103
lradius 56.5673
lwrist -8.87464
lhand -26.8575 23.8382
lfingers 7.12502
lthumb -0.282479 53.8177
rfemur -18.8436 -3.18274 21.9523
rtibia 35.5809
rfoot -26.3962 -13.8789
rtoes 9.44572
lfemur -17.7956 -3.87634 -15.1322
ltibia 19.4723
lfoot -3.12428 12.2718
ltoes -12.6749
580
root -6.29814 17.8156 -4.77833 9.02553 37.6197 4.61804
lowerback 5.66202 0.537662 1.49209
upperback 2.67097 0.896475 4.9443
thorax -0.479132 0.457995 4.21359
lowerneck -13.1702 -1.36107 -7.75148
upperneck 40.4062 0.3756 2.08533
head 16.8985 -0.445084 2.49208
rclavicle 4.73108e-014 -2.54444e-014
rhumerus -25.5495 3.9681 -76.7
rradius 41.1523
rwrist 20.0705
rhand -29.2641 -1.73206
rfingers 7.12502
rthumb -2.60672 -31.6959
lclavicle 4.73108e-014 -2.54444e-014
lhumerus -3.0401 31.3864 37.9832
lradius 58.6902
lwrist -9.75483
lhand -27.5901 23.795
lfingers 7.12502
lthumb -0.990045 53.7724
rfemur -18.8884 -3.01881 21.99
rtibia 35.5308
rfoot -26.234 -13.7254
rtoes 9.53325
lfemur -17.7977 -3.89898 -15.0432
ltibia 19.5662
lfoot -3.26558 12.5938
ltoes -12.3596
581
root -6.2997 17.8153 -4.77458 8.95445 37.2893 4.54914
lowerback 5.71769 0.563854 1.40976
upperback 2.65818 0.928787 4.91374
thorax -0.526177 0.473496 4.2257
lowerneck -12.9614 -1.45767 -7.68508
upperneck 40.1405 0.21861 1.95138
head 16.712 -0.514386 2.38151
rclavicle -3.97569e-016 4.29375e-014
rhumerus -25.849 3.79651 -76.5612
rradius 41.6096
rwrist 19.9048
rhand -29.4541 -1.68553
rfingers 7.12502
rthumb -2.79031 -31.647
lclavicle -3.97569e-016 4.29375e-014
lhumerus -3.80039 31.6688 37.9348
lradius 60.6986
lwrist -10.4081
lhand -28.3171 23.5867
lfingers 7.12502
lthumb -1.69219 53.5597
rfemur -18.8305 -2.84992 22.0177
rtibia 35.4698
rfoot -26.1374 -13.5644
rtoes 9.45432
lfemur -17.7043 -3.90249 -14.9724
ltibia 19.63
lfoot -3.36997 12.9003
ltoes -12.2251
582
root -6.30051 17.8168 -4.7697 8.8201 36.9302 4.43759
lowerback 5.76158 0.605484 1.32661
upperback 2.68862 0.980482 4.93529
thorax -0.524152 0.498425 4.29202
lowerneck -12.9026 -1.5654 -7.7726
upperneck 39.993 0.0734582 1.9183
head 16.6293 -0.591741 2.35166
rclavicle 1.05356e-013 -9.54166e-015
rhumerus -25.9625 3.62941 -76.334
rradius 41.9114
rwrist 19.8241
rhand -29.5776 -1.74961
rfingers 7.12502
rthumb -2.90954 -31.7095
lclavicle 1.05356e-013 -9.54166e-015
lhumerus -4.49323 32.0536 37.9876
lradius 62.6179
lwrist -11.0238
lhand -29.0838 23.1057
lfingers 7.12502
lthumb -2.4326 53.0716
rfemur -18.7226 -2.59135 22.0759
rtibia 35.3853
rfoot -26.0663 -13.4569
rtoes 9.0802
lfemur -17.5526 -3.78763 -14.8862
ltibia 19.6567
lfoot -3.41658 13.1082
ltoes -12.4413
583
root -6.29852 17.8197 -4.76901 8.76126 36.561 4.33149
lowerback 5.75254 0.658745 1.29639
upperback 2.69326 1.04886 4.94734
thorax -0.519525 0.532122 4.31758
lowerneck -12.9776 -1.74083 -7.94963
upperneck 39.9701 -0.166951 1.98078
head 16.6562 -0.712114 2.36888
rclavicle 9.93923e-015 -6.36111e-015
rhumerus -26.1021 3.49049 -76.1001
rradius 42.2369
rwrist 19.8195
rhand -29.6233 -1.77094
rfingers 7.12502
rthumb -2.95365 -31.7302
lclavicle 9.93923e-015 -6.36111e-015
lhumerus -5.11588 32.3357 38.0785
lradius 64.4626
lwrist -11.6979
lhand -30.2673 23.1359
lfingers 7.12502
lthumb -3.57562 53.0856
rfemur -18.7096 -2.39594 22.1171
rtibia 35.291
rfoot -25.8689 -13.3732
rtoes 8.75405
lfemur -17.489 -3.58109 -14.8355
ltibia 19.6805
lfoot -3.40493 13.2442
ltoes -12.7461
584
root -6.29525 17.8227 -4.76969 8.82007 36.2641 4.31298
lowerback 5.66428 0.663656 1.23744
upperback 2.65837 1.04874 4.9264
thorax -0.507038 0.531342 4.32966
lowerneck -13.0285 -1.91333 -8.06978
upperneck 39.9702 -0.412916 2.01915
head 16.6899 -0.829913 2.36435
rclavicle 1.82882e-014 1.90833e-014
rhumerus -26.2476 3.37791 -75.9535
rradius 42.5081
rwrist 19.6919
rhand -29.5624 -1.59506
rfingers 7.12502
rthumb -2.89487 -31.5552
lclavicle 1.82882e-014 1.90833e-014
lhumerus -5.7638 32.5825 38.0576
lradius 66.151
lwrist -12.3144
lhand -31.6651 23.336
lfingers 7.12502
lthumb -4.92536 53.2588
rfemur -18.7531 -2.26511 22.0801
rtibia 35.1738
rfoot -25.6492 -13.2959
rtoes 8.40717
lfemur -17.5252 -3.5585 -14.8365
ltibia 19.7409
lfoot -3.46383 13.518
ltoes -12.598
585
root -6.29042 17.8244 -4.76955 8.84057 36.0374 4.26064
lowerback 5.58051 0.617939 1.2097
upperback 2.63392 0.983225 4.91983
thorax -0.481575 0.498047 4.34316
lowerneck -13.0068 -1.99905 -8.09046
upperneck 39.8877 -0.541753 1.98934
head 16.65 -0.892064 2.32886
rclavicle -2.42517e-014 1.27222e-014
rhumerus -26.4069 3.41293 -75.8364
rradius 42.7944
rwrist 19.3692
rhand -29.8238 -1.39503
rfingers 7.12502
rthumb -3.14732 -31.3515
lclavicle -2.42517e-014 1.27222e-014
lhumerus -6.39089 32.8843 37.9945
lradius 67.6705
lwrist -13.1413
lhand -33.2484 23.7615
lfingers 7.12502
lthumb -6.45398 53.6432
rfemur -18.7583 -2.2029 22.07
rtibia 35.0381
rfoot -25.4842 -13.1062
rtoes 8.74623
lfemur -17.5472 -3.74474 -14.7789
ltibia 19.822
lfoot -3.62412 13.9496
ltoes -12.1021
586
root -6.28867 17.825 -4.76788 8.71144 35.8147 4.05406
lowerback 5.57991 0.594609 1.25755
upperback 2.62845 0.955391 4.9563
thorax -0.484801 0.484424 4.35591
lowerneck -12.8911 -2.0643 -8.11064
upperneck 39.6706 -0.652978 1.95742
head 16.5123 -0.944238 2.29166
rclavicle -7.35503e-014 2.38542e-014
rhumerus -26.5996 3.40043 -75.6831
rradius 43.1277
rwrist 19.1347
rhand -30.3109 -1.40773
rfingers 7.12502
rthumb -3.6177 -31.3568
lclavicle -7.35503e-014 2.38542e-014
lhumerus -6.76906 33.2859 38.1011
lradius 68.855
lwrist -14.2933
lhand -35.2591 24.3688
lfingers 7.12502
lthumb -8.39482 54.182
rfemur -18.6903 -2.10595 22.2134
rtibia 34.8751
rfoot -25.3171 -12.9445
rtoes 8.96995
lfemur -17.536 -3.87973 -14.575
ltibia 19.9428
lfoot -3.787 14.3149
ltoes -11.6088
587
root -6.28948 17.825 -4.76498 8.59464 35.5693 3.89287
lowerback 5.6244 0.597877 1.28267
upperback 2.60395 0.963736 4.95914
thorax -0.535067 0.489012 4.34356
lowerneck -12.8059 -2.13505 -8.11329
upperneck 39.5177 -0.767055 1.91825
head 16.4178 -0.996851 2.25003
rclavicle -9.14409e-015 -4.77083e-015
rhumerus -26.7674 3.22501 -75.5575
rradius 43.3597
rwrist 18.9887
rhand -30.8759 -1.30701
rfingers 7.12502
rthumb -4.16327 -31.2461
lclavicle -9.14409e-015 -4.77083e-015
lhumerus -6.98371 33.7107 38.2456
lradius 69.7417
lwrist -15.2997
lhand -37.2704 24.6866
lfingers 7.12502
lthumb -10.3355 54.4126
rfemur -18.5923 -1.8842 22.3196
rtibia 34.6865
rfoot -25.2091 -12.8278
rtoes 9.33697
lfemur -17.5628 -3.76992 -14.4435
ltibia 20.1371
lfoot -3.87614 14.4672
ltoes -11.6089
588
root -6.29047 17.8243 -4.75987 8.37615 35.3044 3.66993
lowerback 5.69271 0.621288 1.40979
upperback 2.63211 1.00245 4.93151
thorax -0.544095 0.50917 4.2397
lowerneck -12.846 -2.22474 -8.06274
upperneck 39.4127 -0.90415 1.85831
head 16.381 -1.05558 2.18739
rclavicle 2.46493e-014 3.18055e-015
rhumerus -26.8748 2.91298 -75.4767
rradius 43.5131
rwrist 18.9339
rhand -31.3407 -1.24103
rfingers 7.12502
rthumb -4.61217 -31.1708
lclavicle 2.46493e-014 3.18055e-015
lhumerus -6.98104 34.3513 38.4321
lradius 70.3711
lwrist -16.2772
lhand -38.8415 24.5699
lfingers 7.12502
lthumb -11.8508 54.2146
rfemur -18.4155 -1.58824 22.4899
rtibia 34.5002
rfoot -25.1758 -12.7875
rtoes 9.30982
lfemur -17.5221 -3.62591 -14.252
ltibia 20.3624
lfoot -3.9914 14.6143
ltoes -11.6053
589
root -6.28991 17.825 -4.7543 8.14621 35.0195 3.43745
lowerback 5.71186 0.638268 1.49858
upperback 2.69956 1.02828 4.96834
thorax -0.485899 0.522248 4.2267
lowerneck -12.9485 -2.31572 -8.07059
upperneck 39.2791 -0.994843 1.73126
head 16.3432 -1.11304 2.11273
rclavicle -8.82604e-014 -5.08889e-014
rhumerus -26.9161 2.57519 -75.3306
rradius 43.6446
rwrist 18.9227
rhand -31.4798 -1.27775
rfingers 7.12502
rthumb -4.74649 -31.2046
lclavicle -8.82604e-014 -5.08889e-014
lhumerus -6.78547 35.2475 38.7868
lradius 70.6591
lwrist -17.2806
lhand -39.8601 24.4027
lfingers 7.12502
lthumb -12.8329 53.9882
rfemur -18.2423 -1.38172 22.676
rtibia 34.365
rfoot -25.0757 -12.7366
rtoes 9.10004
lfemur -17.4254 -3.55441 -14.0462
ltibia 20.5444
lfoot -4.21393 14.8667
ltoes -11.2147
590
root -6.28931 17.8283 -4.75157 8.10827 34.7348 3.25837
lowerback 5.62739 0.648663 1.53991
upperback 2.66841 1.04232 5.01736
thorax -0.471974 0.529429 4.25433
lowerneck -12.8482 -2.37443 -8.1032
upperneck 39.0447 -1.05019 1.60201
head 16.2001 -1.15686 2.04594
rclavicle -5.04913e-014 -1.74931e-014
rhumerus -27.0358 2.38706 -75.1766
rradius 43.7843
rwrist 18.7881
rhand -31.395 -1.37289
rfingers 7.12502
rthumb -4.66458 -31.3015
lclavicle -5.04913e-014 -1.74931e-014
lhumerus -6.60318 35.9762 39.0976
lradius 70.7322
lwrist -17.8084
lhand -40.5912 24.6661
lfingers 7.12502
lthumb -13.5376 54.206
rfemur -18.266 -1.25712 22.8158
rtibia 34.2839
rfoot -24.9003 -12.6326
rtoes 9.12744
lfemur -17.4897 -3.5534 -13.8733
ltibia 20.7161
lfoot -4.45391 15.1512
ltoes -10.703
591
root -6.28784 17.8333 -4.75178 8.20889 34.5227 3.28452
lowerback 5.56376 0.618972 1.48202
upperback 2.6022 0.998724 4.99509
thorax -0.502693 0.50723 4.26655
lowerneck -12.6294 -2.44111 -8.26488
upperneck 38.691 -1.15264 1.61763
head 15.9729 -1.21772 2.05594
rclavicle 6.32135e-014 -1.27222e-014
rhumerus -27.1588 2.25171 -75.0876
rradius 43.855
rwrist 18.6766
rhand -31.2893 -1.38632
rfingers 7.12502
rthumb -4.56247 -31.3172
lclavicle 6.32135e-014 -1.27222e-014
lhumerus -6.48335 36.462 39.1968
lradius 70.6302
lwrist -17.7572
lhand -41.2588 25.2525
lfingers 7.12502
lthumb -14.181 54.7485
rfemur -18.3393 -1.27832 22.7781
rtibia 34.2366
rfoot -24.6958 -12.5575
rtoes 8.85129
lfemur -17.6033 -3.52302 -13.9114
ltibia 20.8809
lfoot -4.54298 15.285
ltoes -10.7515
592
root -6.28667 17.8364 -4.75174 8.21996 34.3731 3.28981
lowerback 5.5579 0.57618 1.47212
upperback 2.58235 0.940863 4.96552
thorax -0.515919 0.478162 4.24462
lowerneck -12.5077 -2.56971 -8.59873
upperneck 38.3637 -1.34657 1.78607
head 15.7971 -1.32225 2.1481
rclavicle -2.26615e-014 -7.95139e-015
rhumerus -27.2247 1.91495 -74.9875
rradius 43.8991
rwrist 18.4796
rhand -31.3282 -1.38988
rfingers 7.12502
rthumb -4.60001 -31.3199
lclavicle -2.26615e-014 -7.95139e-015
lhumerus -6.23068 36.8706 39.3481
lradius 70.3468
lwrist -17.4225
lhand -41.5373 25.9746
lfingers 7.12502
lthumb -14.4493 55.4515
rfemur -18.3351 -1.26881 22.7581
rtibia 34.1971
rfoot -24.5503 -12.5378
rtoes 8.44359
lfemur -17.6491 -3.34927 -13.9522
ltibia 21.0254
lfoot -4.65453 15.2699
ltoes -10.5463
593
root -6.28462 17.8365 -4.74967 8.1484 34.2323 3.28288
lowerback 5.64542 0.572617 1.50703
upperback 2.54204 0.941899 4.89745
thorax -0.604782 0.47929 4.15249
lowerneck -12.4904 -2.71885 -8.76119
upperneck 38.2051 -1.57613 1.88456
head 15.7336 -1.42849 2.177
rclavicle 8.90555e-014 -3.33958e-014
rhumerus -27.4235 1.23168 -74.896
rradius 44.0191
rwrist 18.2692
rhand -31.1856 -1.13893
rfingers 7.12502
rthumb -4.46241 -31.0719
lclavicle 8.90555e-014 -3.33958e-014
lhumerus -5.76481 37.2004 39.5839
lradius 69.773
lwrist -16.9515
lhand -41.2115 26.2342
lfingers 7.12502
lthumb -14.1354 55.7333
rfemur -18.2356 -1.16901 22.7287
rtibia 34.1527
rfoot -24.5396 -12.4107
rtoes 8.73402
lfemur -17.6105 -3.15596 -13.9941
ltibia 21.1742
lfoot -4.7473 15.2526
ltoes -10.4109
